<?xml version="1.0" encoding="iso-8859-1"?>
<!-- Uploaded to: SVG Repo, www.svgrepo.com, Generator: SVG Repo Mixer Tools -->
<svg height="800px" width="800px" version="1.1" id="Layer_1" xmlns="http://www.w3.org/2000/svg" xmlns:xlink="http://www.w3.org/1999/xlink" 
	 viewBox="0 0 512.001 512.001" xml:space="preserve">
<path style="fill:#51B3DA;" d="M440.17,512H71.827c-37.949,0-58.599-44.286-34.291-73.363L163.07,288.473
	c6.568-7.857,17.862-9.79,26.672-4.567c40.868,24.237,91.645,24.237,132.515,0c8.808-5.223,20.104-3.289,26.672,4.567
	l125.534,150.165C498.799,467.752,478.07,512,440.17,512z"/>
<path style="fill:#238CC5;" d="M474.461,438.638L348.927,288.475c-6.566-7.858-17.864-9.79-26.672-4.567
	c-20.434,12.118-43.346,18.178-66.257,18.178v209.916H440.17C478.119,512,498.769,467.716,474.461,438.638z"/>
<path style="fill:#FFD155;" d="M256.007,417.276c-52.782,0-91.445-41.766-110.295-91.425c-2.678-7.058-1.339-15.011,3.502-20.803
	l13.855-16.574c6.566-7.857,17.862-9.79,26.672-4.567c40.868,24.237,91.645,24.237,132.515,0c8.808-5.223,20.101-3.289,26.672,4.567
	l13.855,16.574c4.842,5.791,6.181,13.745,3.502,20.803C344.554,383.098,303.328,417.276,256.007,417.276z"/>
<path style="fill:#FFC72D;" d="M362.782,305.047l-13.855-16.574c-6.569-7.855-17.864-9.79-26.672-4.567
	c-20.434,12.118-43.346,18.178-66.257,18.178v115.191c0.003,0,0.006,0,0.008,0c47.322,0,88.546-34.177,110.277-91.424
	C368.963,318.793,367.624,310.838,362.782,305.047z"/>
<path style="fill:#FFDA79;" d="M255.998,343.848c-30.277,0-60.556-8.007-87.559-24.021c-35.1-20.814-60.675-51.163-73.959-87.763
	C56.82,128.311,126.547,0,255.998,0c82.412,0,145.195,53.081,165.253,126.235c19.886,72.518-6.192,151.189-77.695,193.592h0.001
	C316.553,335.841,286.276,343.848,255.998,343.848z"/>
<path style="fill:#FFD155;" d="M421.252,126.235C401.324,53.557,338.905,0,255.998,0v343.848c30.277,0,60.555-8.007,87.559-24.021
	h-0.001C414.618,277.686,441.275,199.255,421.252,126.235z"/>
<path style="fill:#2C3E50;" d="M91.723,222.6C57.612,112.008,140.242,0,255.998,0c84.759,0,155.815,61.604,169.506,143.301
	c1.101,6.572-1.001,13.275-5.657,18.043c-61.579,63.041-161.807,69.819-231.52,13.13c-16.51,25.671-39.686,46.693-67.235,60.61
	C109.549,240.915,95.531,234.943,91.723,222.6z"/>
<path style="fill:#22313F;" d="M425.504,143.301C411.823,61.66,340.808,0,255.998,0v208.153
	c59.933,14.761,122.092-4.062,163.849-46.811C424.504,156.575,426.605,149.872,425.504,143.301z"/>
</svg>